<svg width="40" height="34" viewBox="0 0 40 34" fill="none" xmlns="http://www.w3.org/2000/svg">
<path d="M40 16.3546V0.260757C40 0.0125226 39.7002 -0.0909091 39.5402 0.095267L22.5487 22.064C22.4088 22.2295 22.5287 22.4985 22.7486 22.4985H35.0225C35.3623 22.4985 35.6622 22.333 35.8621 22.064L39.7401 17.058C39.9001 16.8718 40 16.6236 40 16.3546ZM0.259869 17.0787L13.0135 33.5863C13.2134 33.8552 13.5332 34 13.8731 34H26.1469C26.3668 34 26.4868 33.7518 26.3468 33.5863L0.459769 0.115954C0.299849 -0.0702216 0 0.0332101 0 0.281445V16.3753C0.01999 16.6236 0.0999491 16.8718 0.259869 17.0787Z" fill="#F34C61"/>
</svg>
